<svg version="1" xmlns="http://www.w3.org/2000/svg" width="2220" height="2220" viewBox="0 0 1665 1665"><path d="M578.5 79.9c-.6.5-6.2 3.9-12.5 7.5s-12.2 7-13 7.5c-.8.6-3.7 2.2-6.5 3.7-2.7 1.4-5.7 3.2-6.5 3.9-.8.6-3 1.8-4.7 2.6-1.8.8-3.3 1.7-3.3 2.1 0 .5-.4.8-.9.8s-6.4 3.2-13.2 7.2c-6.8 3.9-13.7 7.9-15.4 8.8-1.6 1-7 4.1-12 7-4.9 2.9-11 6.4-13.5 7.8-2.5 1.3-8.5 4.8-13.5 7.7-4.9 2.9-10.6 6.2-12.5 7.3-1.9 1.1-6.2 3.5-9.5 5.4-5.5 3.2-36 20.8-43 24.8-1.6 1-10.2 5.9-19 11-19.8 11.5-55.3 32-58 33.5-1.1.6-3.4 2-5.1 3l-3 2 9.9 17c5.4 9.3 11.1 19.2 12.6 22 1.6 2.7 7.7 13.3 13.6 23.5 5.9 10.2 11.7 20.3 13 22.5 1.2 2.2 3.7 6.5 5.5 9.5 1.8 3 4.4 7.5 5.8 10 1.4 2.5 3.2 5.7 4.1 7.2 1.5 2.5 13.3 23 15.7 27.3.6 1.1 8.4 14.6 17.4 30 8.9 15.4 17.3 29.8 18.5 32 1.2 2.2 5.5 9.6 9.4 16.5 4 6.9 8.3 14.3 9.6 16.5 1.2 2.2 4 6.9 6.1 10.5 4.5 7.7 5.9 10.1 9.9 17.5 1.6 3 3.4 5.5 4 5.5.5 0 3-1.2 5.5-2.6 2.5-1.4 6.3-3.6 8.5-4.9 2.2-1.2 16.8-9.6 32.5-18.7s29.9-17.3 31.5-18.2c1.7-.9 4.6-2.6 6.5-3.7 1.9-1.2 9.8-5.7 17.5-10.1 7.7-4.4 18.1-10.4 23-13.3 12-7 54.5-31.6 89-51.4 15.4-8.9 28.7-16.5 29.5-17 .8-.5 6.8-4 13.2-7.6l11.6-6.7-1.8-3.2c-8.1-14.2-16.3-28.3-16.9-29.1-.5-.6-2.2-3.5-3.8-6.5-1.7-3-6.9-12.2-11.7-20.3-4.7-8.2-8.6-15.1-8.6-15.5 0-.3-.6-1.3-1.4-2.1-.7-.9-2.7-4.1-4.3-7.1-1.7-3-5.4-9.6-8.3-14.5-2.9-5-6.4-11-7.8-13.5-4.8-8.4-13.5-23.5-15.3-26.5-1.1-1.7-2.2-3.6-2.6-4.4-.3-.7-7.5-13.3-16-27.8-8.4-14.6-15.3-26.9-15.3-27.4s-.4-.9-1-.9c-.5 0-1-.4-1-.9s-2.3-4.9-5.1-9.8c-2.8-4.8-6.1-10.4-7.1-12.3-2.9-4.9-11.1-19.1-12.5-21.5-.7-1.1-1.5-2.7-1.9-3.5-.4-.8-2.1-3.8-3.8-6.5-1.8-2.8-4.3-7.1-5.6-9.8-2.4-4.5-4.5-5.7-6.5-3.8zm256.9 57.3c.3 1.3 1.3 6.8 2.1 12.3 2.1 15 2.6 17.9 3 19.5.2.8.7 3.7 1 6.5.4 2.7.8 5.7 1 6.5.2.8.7 3.9 1 6.9.4 3 .9 6.3 1.1 7.5.4 1.9 3 18.6 3.9 24.6.4 2.6 3.5 22.6 6.1 39 .8 5.2 1.7 11.1 2 13 .5 3.5 2.1 14.4 2.9 19 .6 3.3 4.5 28.6 5.1 33 .3 1.9 1.1 7.3 1.9 12 .8 4.7 1.7 10.5 2 13 .3 2.5 1.2 8.3 2 13 .8 4.7 1.7 10.5 2 13 .3 2.5 1.5 10.1 2.6 17s2.4 15.4 3 19c.5 3.6 1.4 9 1.9 12 .6 3 1.2 7.5 1.5 10 .3 2.5 1.2 8.3 2 13 .8 4.7 1.7 10.3 2 12.5.2 2.2.7 5.1.9 6.5.3 1.4.8 4.3 1.1 6.5.3 2.3.7 5 .9 6.2.7 3.5 1.6 9.2 2.1 13.6.3 2.3.7 5.1.9 6.2.2 1.1.6 3.8 1 6 .3 2.2 1.7 11 3.1 19.5 1.3 8.5 2.7 17.3 3 19.5.3 2.2 1.4 9.6 2.5 16.5 1 6.9 2.1 13.8 2.3 15.5.3 1.6.8 4.8 1.1 7 .4 2.2 1.1 6.7 1.6 10s1.2 7.6 1.5 9.5c1.1 6.9 2.4 15.6 3 19.5.4 2.2.8 5.1 1 6.5.3 1.4 1.6 10.1 3 19.5 1.4 9.3 2.8 18.1 3.1 19.5.2 1.4.7 4.3 1 6.5.5 4.1.8 5.8 2.4 15.5.5 3 1.3 8.6 1.9 12.5.6 3.8 1.3 8.1 1.5 9.5.3 1.4.7 4.5 1 7 .3 2.5 1.1 7.2 1.6 10.5.6 3.3 1.3 7.8 1.6 10 .3 2.2.9 6.5 1.4 9.5.5 3 1.2 7.1 1.5 9 .3 1.9.7 4.6 1 6 .2 1.4.7 4.5 1 7 .3 2.5 1.2 8.3 2 13 2.4 14.4 2.7 16.4 3 20 .4 3.1.7 4.9 2.1 12 .2.8.6 3.5.8 6 .3 2.5.7 5.4 1 6.5.2 1.1.7 4.2 1.1 7 1 6.9 3.3 21.5 8.5 55 3 18.7 4 25.5 4.6 29.5.2 1.9.9 6 1.4 9 .5 3 1.2 7.3 1.5 9.5.7 5.3 3.5 23.3 4.1 26.5.2 1.4.6 4.5 1 7 .3 2.5.7 5.2 1 6 .2.9.9 5.1 1.5 9.5 1.6 12 1.7 12.7 3.8 25.3 1.1 6.4 2.5 15.3 3.1 19.7.6 4.4 1.3 9.1 1.6 10.5.6 3.7 1.2 7.4 3 19 3.4 23.2 5 33.3 5.9 38 .3 1.4.7 4.2 1 6.4.8 6.6 1.6 12 2 13.6.4 1.4 1.4 7.8 2 12.5.1 1.1.3 2.3.4 2.7 0 .5 69.8.8 155 .8h154.9l.7-4.3c.4-2.3.9-4.9 1-5.7.5-2.7 2.4-15.4 2.9-19 .3-1.9 1.2-8 2.1-13.5.9-5.5 1.8-11.1 2-12.5.3-2.2 3.8-24.9 5-32.5.3-1.7 1.2-7.7 2-13.5 2.1-13.7 2.5-16.2 3-18 .2-.8.6-3.8 1-6.5.3-2.8 1-7.5 1.5-10.5s1.2-7.3 1.5-9.5c1.1-6.9 1.5-9.9 2-12.5.2-1.4.7-4.3 1-6.5.3-2.2 1-6.5 1.5-9.5s1.2-7.5 1.5-10c.3-2.5 1.2-8.3 2-13 .8-4.7 1.7-10.8 2.1-13.5.3-2.8.8-5.9 1-7 .2-1 .6-3.5.9-5.5.3-2 .7-4.5.9-5.7.5-2.2 1.5-8.9 2.1-13.3.2-1.4.6-4.1.9-6 .6-3.7 4.6-29.2 5.1-32.5.5-4 1.8-12 2.1-13.9.2-1 1.5-9.6 2.9-19s3.7-23.9 5-32.1c1.3-8.3 2.7-17 3-19.5.7-5.1.7-5 3.4-22 1.1-6.9 2.2-14.3 2.6-16.5.3-2.2 1-6.5 1.5-9.5s1.2-7.5 1.5-10c.5-3.8 2.2-14.9 4-26 .2-1.4 1.1-7.5 2-13.5 1-6.1 1.9-11.7 2-12.7.2-.9.7-3.8 1.1-6.5.3-2.6.8-5.5.9-6.3.2-.8.8-5.1 1.5-9.5.6-4.4 1.3-9.1 1.6-10.5.2-1.4 1.1-7.2 2-13 .8-5.8 1.7-11.6 2-13 .7-4.3 2.5-15.4 2.9-18 .5-3.5 1.5-9.9 2.1-14 .3-1.9.7-4.4.9-5.5.2-1.1.5-3.6.8-5.5.5-3 3.2-20.3 5.2-33.5.4-2.2.9-5.4 1.1-7 .3-1.7.7-4.6 1-6.5.2-1.9.8-6 1.4-9 1.1-6.7 2-12.5 2.5-16.5.5-3.2 1.5-9.8 2.1-12.9.2-1 .6-3.7.8-6 .3-2.2.7-5 1-6.1.2-1.1.7-4.2 1-6.8.4-2.7.9-5.6 1-6.5.3-1.7 1.6-10 2.1-13.7.3-1.9 3.9-25.2 5-32 .3-1.7.7-4.1.9-5.5.3-1.4 1-6.1 1.6-10.5.6-4.4 1.5-10.3 2-13 .5-2.8 1.2-7 1.5-9.5.3-2.5.8-5.2 1-6 .2-.8.6-3.8 1-6.5.3-2.8.8-5.7 1-6.5.2-.8.6-3.5.9-6 .3-2.5.8-5.5 1-6.7.3-1.2 1.2-7.2 2.1-13.3.9-6.1 1.8-11.9 1.9-12.8.2-.9.7-4.2 1.2-7.2.4-3 .8-5.7.9-6 .2-.8 1.6-10.2 2.1-14 .3-1.9 1.4-9.1 2.5-16 2.2-13.6 2.5-15.5 3.4-21.5.3-2.2 1-6.7 1.5-10s1.2-7.8 1.5-10c.8-5.3 1.3-8.5 2-11.5.2-1.4.7-4.5 1-7 .3-2.5 1-7.2 1.5-10.5.6-3.3 1.3-7.8 1.6-10 .3-2.2 1.2-7.8 1.9-12.5 1.5-9.2 2.6-16.2 3-19.7.6-4.7 1.7-10.9 2.1-12.6.5-1.6-14.7-1.7-309.6-1.7H834.8l.6 2.2zm-465.5 448c-.3 1-.8 4-1.3 7.8-.4 2.5-.9 5.6-1.1 7-.2 1.4-.7 4.3-1 6.5-.3 2.3-.7 5.2-1 6.5-.3 1.3-.7 4.2-1 6.5-.3 2.2-1.2 7.8-2 12.5s-1.7 10.7-2 13.5c-.4 2.7-.8 5.7-1 6.5-.2.8-.7 3.5-1 6-.3 2.5-1.3 8.8-2.1 14-.8 5.2-1.7 10.8-2 12.5-.2 1.6-.6 4.1-.9 5.5-.2 1.4-.7 4.3-1 6.5-.3 2.2-1.2 8-2 13-1.8 10.9-4.2 26.4-5 32.5-.3 2.5-1.7 11.2-3 19.5-2.4 14.8-3 18.9-4 26.2-.3 2.1-.8 4.9-1 6.3-.3 1.4-.7 4.1-1 6-.3 1.9-.7 4.6-1 6-.3 1.4-.7 4.7-1.1 7.5-.3 2.7-.8 5.9-1 7-.3 1.1-.7 4-1 6.5-.3 2.5-.7 5.2-.9 6-.2.8-.7 3.7-1 6.5-.4 2.7-1 6.8-1.5 9s-1.1 6.4-1.5 9.4c-.4 3-.8 6.2-1 7.2-.2.9-.7 3.9-1.1 6.6-.3 2.6-.8 5.5-1 6.5-.1.9-.6 3.8-1 6.5-.3 2.6-.8 5.5-1 6.5-.1.9-.6 3.8-1 6.5-.3 2.6-.8 5.7-1 6.8-.2 1-.6 3.7-.9 6-.3 2.2-1.4 9.2-2.5 15.5-1 6.3-2.1 13.5-2.5 16-.3 2.5-.8 5.2-1 6-.2.8-.7 4-1 7-.3 3-.8 6.2-1 7-.3.8-.7 3.3-1 5.5-.2 2.2-.7 5.1-.9 6.5-.3 1.4-.8 4.5-1.1 7-.3 2.5-.8 5.2-1 6-.2.8-.6 3.7-1 6.5-.3 2.7-.8 5.7-1 6.5-.2.8-.6 3.5-.9 6-.3 2.5-.8 5.4-1 6.5-.5 2.5-1.4 8.8-2.2 14-.8 5.7-1.4 9.6-1.9 12.5-.2 1.4-.7 4.3-1 6.5-.3 2.2-1.2 8.3-2.1 13.5-.8 5.2-1.6 10.6-1.9 12-.2 1.4-1.3 8.8-2.5 16.5-1.2 7.7-3 19.4-4 26-1.1 6.6-2.2 13.8-2.5 16-.3 2.2-1.5 9.6-2.6 16.5s-2.2 13.8-2.4 15.5c-.2 1.6-.7 4.8-1 7-.4 2.2-.8 5.1-1 6.5-.2 1.4-1.8 11-3.4 21.5-2.5 15.9-6.6 42.4-8.6 56.5-.3 1.9-1 6-1.5 9s-1.2 7.1-1.4 9c-.3 1.9-.8 5.3-1.1 7.5-.4 2.2-.8 5.1-1 6.5-.2 1.4-1.3 8.1-2.4 15-1.1 6.9-2.3 14.7-2.6 17.5-.4 2.7-.8 5.7-1 6.5-.2.8-.7 3.7-1.1 6.5-.3 2.7-.7 5.7-.9 6.5-.1.8-.6 3.5-1 6s-.9 5.4-1.1 6.5c-.2 1-.6 3.7-.9 6-.4 2.2-1.5 9.6-2.6 16.4-1.1 6.8-2.1 13.7-2.4 15.5-.2 1.7-2 13.2-3.9 25.6-3.5 22.7-4.3 27.7-5.2 34-.2 1.9-.9 6-1.4 9-.5 3-1.2 7.3-1.5 9.5-.3 2.2-.7 4.7-1 5.5-.2.8-.6 3.7-.9 6.5-.3 2.7-.8 6-1 7.2-.3 1.1-.8 4.3-1.2 7-.3 2.6-.8 5.7-1 6.8-.2 1-.6 3.7-.9 6-.3 2.2-.8 5.1-1 6.5-.7 3.9-1.4 8.3-2 12.6-1.2 8.1-1.5 10.4-3 20-.9 5.5-1.8 11.2-2.1 12.9-.2 1.6-.6 4.1-.9 5.5-.2 1.4-.7 4.5-1 7-.4 2.5-1.1 6.7-1.6 9.4s-.9 5.3-.9 5.7c0 .5 136.7.9 310 .9h310.1l-.6-3.3c-1.2-7.4-5.4-34.5-6-38.7-.3-2.5-.8-5.2-1-6-.2-.8-.7-3.5-1-6-.2-2.5-.7-5.6-1-7-.3-1.4-.7-4.3-1-6.5-.3-2.2-.7-4.9-.9-6-.2-1.1-.6-4.1-1-6.6s-.9-5.7-1.1-7c-.2-1.3-.6-4.1-.9-6.2-1.6-10.5-4.4-28.5-5.1-32.7-.5-3-3.2-20.9-4-26.5-.3-2.2-.7-4.9-1-6-.2-1.1-1.1-7-2-13-.9-6.1-1.8-12.1-2.1-13.5-.2-1.4-.7-4.1-1-6-1.2-7.4-3.4-21.7-3.9-25.5-.4-2.2-.8-5.1-1-6.5-.3-1.4-.7-4.3-1-6.5-.3-2.2-1-6.5-1.5-9.5-.6-3-1.2-6.9-1.4-8.5-.9-6.9-3.7-25.4-4.6-30-.5-2.8-1.1-7-1.5-9.5-.3-2.5-.9-7-1.5-10-.5-3-1.2-7.5-1.5-10-.7-5.3-1.2-8.6-2.5-16s-1.8-10.7-2.5-16c-.3-2.5-1-7-1.5-10-.6-3-1.2-7.5-1.6-10-.3-2.5-1-7.2-1.6-10.5-.5-3.3-1.1-7.1-1.3-8.5-.2-1.4-.6-3.9-.9-5.5-.2-1.7-.8-5-1.1-7.5-.4-2.5-.9-5.4-1.1-6.5-.2-1-.6-3.7-.9-6-.3-2.2-1-6.5-1.5-9.5s-1.2-7.8-1.5-10.5c-.3-2.8-.8-5.7-1-6.5-.3-.8-.7-3.5-1-6-.3-2.5-.7-5.6-1-7-.3-1.4-1-5.5-1.5-9.2-.5-3.6-1.6-10.8-2.4-16-2.2-14.1-2.5-15.5-4.1-26.8-.9-5.8-1.8-11.6-2.1-13-.2-1.4-.7-4.1-1-6-.2-1.9-.7-4.6-.9-6-.3-1.4-.7-4.3-1.1-6.5-.3-2.2-.7-5.1-1-6.5-.2-1.4-.6-4.5-.9-7-.3-2.5-1-6.8-1.5-9.5-.6-2.8-1.2-7-1.5-9.5-.5-3.9-1.6-10.9-2.9-17.5-.2-1.1-.7-4.3-1-7-1.1-8-1.7-11.9-3.6-24-.7-3.9-1.3-8.4-1.5-10-.4-3.1-2.3-15-3.1-19.5-.2-1.4-1.3-8.6-2.5-16-1.1-7.4-2.2-14.2-2.4-15-.2-.8-.6-3.8-1-6.5-.3-2.8-1-7.5-1.5-10.5s-1.1-6.9-1.4-8.5c-.8-5.4-1.8-12-2.1-13.5-.2-.8-.6-3.5-.9-6-.3-2.5-.8-5.6-1.1-7-.3-1.4-.7-4.3-1-6.5-.3-2.2-.7-5.1-1-6.5-.2-1.4-.7-4.2-.9-6.2-.3-2.1-1-6.3-1.5-9.5-.6-3.2-1.3-8.1-1.6-10.8-.4-2.8-.8-5.7-1-6.5-.3-.8-.9-4.7-1.4-8.5-1.3-8.8-2.1-14.3-2.7-17.5-.8-4.5-2.3-14.4-2.9-19-.3-2.5-1.5-9.7-2.5-16-1.1-6.3-2.2-13.1-2.4-15-.3-1.9-1-6.7-1.6-10.5-1.3-8.4-1.7-10.7-3.6-24-.2-1.7-.6-4.1-.9-5.5-.5-2.8-1.1-6.5-2-12.5-.3-2.3-.7-5-.9-6-.2-1.1-.7-4.5-1.1-7.5-.4-3-.9-6.4-1.1-7.5-.7-3.6-1.3-6.9-1.9-11.5-.3-2.5-1.2-8.3-2-13-.8-4.7-1.7-10.3-2-12.5-.7-5-4.2-27.9-5.5-36-.6-3.3-1.2-7.1-1.4-8.5l-.3-2.5-155.1-.3c-85.4-.1-155.2-.1-155.3 0zM990 1430v155h310v-310H990v155z"/></svg>