<svg xmlns="http://www.w3.org/2000/svg" width="1199" height="326"><path fill="#3498DB" d="M874.485 126.648v-25.986a1 1 0 0 1 1-1h58.58a1 1 0 0 1 1 1v193.416a1 1 0 0 1-1 1h-58.58a1 1 0 0 1-1-1v-25.986c-17.534 16.72-41.277 26.986-67.418 26.986-53.963 0-97.708-43.746-97.708-97.708 0-53.963 43.745-97.708 97.708-97.708 26.14 0 49.884 10.266 67.418 26.986zM243.293 99.662V2.954a1 1 0 0 0-1-1h-58.58a1 1 0 0 0-1 1v291.124a1 1 0 0 0 1 1h58.58a1 1 0 0 0 1-1V160.24h60.578v133.837a1 1 0 0 0 1 1h58.58a1 1 0 0 0 1-1V2.954a1 1 0 0 0-1-1h-58.58a1 1 0 0 0-1 1v96.708h-60.578zM30.289 115.323h60.58l30.289 210.044H0l30.29-210.044zM18.45 51.078L59.872 9.657a1 1 0 0 1 1.414 0l41.421 41.421a1 1 0 0 1 0 1.414L61.286 93.914a1 1 0 0 1-1.414 0L18.45 52.492a1 1 0 0 1 0-1.414zm473.02 244c-53.962 0-97.707-43.746-97.707-97.708 0-53.963 43.745-97.708 97.707-97.708 53.963 0 97.708 43.745 97.708 97.708 0 53.962-43.745 97.708-97.708 97.708zm0-60.58c20.506 0 37.13-16.622 37.13-37.128s-16.624-37.13-37.13-37.13c-20.505 0-37.129 16.624-37.129 37.13 0 20.506 16.624 37.129 37.13 37.129zM619.49 2.372h58.58a1 1 0 0 1 1 1v291.123a1 1 0 0 1-1 1h-58.58a1 1 0 0 1-1-1V3.371a1 1 0 0 1 1-1zm187.577 232.128c20.506 0 37.129-16.623 37.129-37.13 0-20.505-16.623-37.128-37.13-37.128-20.505 0-37.128 16.623-37.128 37.129 0 20.506 16.623 37.129 37.129 37.129zm216.527-49.274a1 1 0 0 1-.433-1.228l70.745-182.492a1 1 0 0 1 1.432-.505l102.905 59.412a1 1 0 0 1 .28 1.493L1075.85 214.418a1 1 0 0 1-1.279.24l-50.978-29.433zm-43.842 76.227a1 1 0 0 1-.366-1.366l29.29-50.73a1 1 0 0 1 1.365-.367l50.731 29.29a1 1 0 0 1 .366 1.366l-29.29 50.73a1 1 0 0 1-1.365.366l-50.731-29.29z"/></svg>