<svg xmlns="http://www.w3.org/2000/svg" width="1199" height="326" viewBox="0 0 1199 326">
  <path fill="#FFF" d="M1144.48521,242.647752 L1144.48521,216.662001 C1144.48521,216.109716 1144.93292,215.662001 1145.48521,215.662001 L1204.06407,215.662001 C1204.61635,215.662001 1205.06407,216.109716 1205.06407,216.662001 L1205.06407,410.07769 C1205.06407,410.629975 1204.61635,411.07769 1204.06407,411.07769 L1145.48521,411.07769 C1144.93292,411.07769 1144.48521,410.629975 1144.48521,410.07769 L1144.48521,384.091939 C1126.95111,400.811935 1103.2078,411.07769 1077.06679,411.07769 C1023.10424,411.07769 979.35895,367.332398 979.35895,313.369846 C979.35895,259.407293 1023.10424,215.662001 1077.06679,215.662001 C1103.2078,215.662001 1126.95111,225.927756 1144.48521,242.647752 Z M513.292532,215.662001 L513.292532,118.954157 C513.292532,118.401872 512.844817,117.954157 512.292532,117.954157 L453.713669,117.954157 C453.161384,117.954157 452.713669,118.401872 452.713669,118.954157 L452.713669,118.954157 L452.713669,410.07769 C452.713669,410.629975 453.161384,411.07769 453.713669,411.07769 L512.292532,411.07769 C512.844817,411.07769 513.292532,410.629975 513.292532,410.07769 L513.292532,276.240865 L573.871396,276.240865 L573.871396,410.07769 C573.871396,410.629975 574.319111,411.07769 574.871396,411.07769 L633.450259,411.07769 C634.002544,411.07769 634.450259,410.629975 634.450259,410.07769 L634.450259,118.954157 C634.450259,118.401872 634.002544,117.954157 633.450259,117.954157 L574.871396,117.954157 C574.319111,117.954157 573.871396,118.401872 573.871396,118.954157 L573.871396,118.954157 L573.871396,215.662001 L513.292532,215.662001 Z M300.289432,231.323452 L360.868295,231.323452 L391.157727,441.367122 L270,441.367122 L300.289432,231.323452 Z M288.450245,167.078051 L329.871757,125.656539 C330.262281,125.266015 330.895446,125.266015 331.28597,125.656539 L372.707482,167.078051 C373.098006,167.468575 373.098006,168.10174 372.707482,168.492264 L331.28597,209.913776 C330.895446,210.3043 330.262281,210.3043 329.871757,209.913776 L288.450245,168.492264 C288.059721,168.10174 288.059721,167.468575 288.450245,167.078051 Z M761.470457,411.07769 C707.507905,411.07769 663.762613,367.332398 663.762613,313.369846 C663.762613,259.407293 707.507905,215.662001 761.470457,215.662001 C815.433009,215.662001 859.178301,259.407293 859.178301,313.369846 C859.178301,367.332398 815.433009,411.07769 761.470457,411.07769 Z M761.470457,350.498826 C781.976227,350.498826 798.599438,333.875615 798.599438,313.369846 C798.599438,292.864076 781.976227,276.240865 761.470457,276.240865 C740.964687,276.240865 724.341476,292.864076 724.341476,313.369846 C724.341476,333.875615 740.964687,350.498826 761.470457,350.498826 Z M889.490655,118.370702 L948.069518,118.370702 C948.621803,118.370702 949.069518,118.818417 949.069518,119.370702 L949.069518,410.494234 C949.069518,411.046519 948.621803,411.494234 948.069518,411.494234 L889.490655,411.494234 C888.93837,411.494234 888.490655,411.046519 888.490655,410.494234 L888.490655,119.370702 C888.490655,118.818417 888.93837,118.370702 889.490655,118.370702 Z M1077.06679,350.498826 C1097.57256,350.498826 1114.19577,333.875615 1114.19577,313.369846 C1114.19577,292.864076 1097.57256,276.240865 1077.06679,276.240865 C1056.56102,276.240865 1039.93781,292.864076 1039.93781,313.369846 C1039.93781,333.875615 1056.56102,350.498826 1077.06679,350.498826 Z M1293.59356,301.224682 C1293.16649,300.97811 1292.98292,300.45701 1293.16117,299.997206 L1363.90607,117.504591 C1363.9246,117.456774 1363.94679,117.410454 1363.97243,117.366041 C1364.24857,116.887748 1364.86016,116.723873 1365.33846,117.000015 L1365.33846,117.000015 L1468.24293,176.411937 C1468.28734,176.43758 1468.32971,176.4666 1468.36967,176.498742 C1468.80003,176.844887 1468.86829,177.474361 1468.52215,177.904713 L1345.85135,330.417897 C1345.54227,330.802165 1344.99921,330.903744 1344.57213,330.657172 L1293.59356,301.224682 Z M1249.75204,377.451939 C1249.27375,377.175797 1249.10987,376.564206 1249.38601,376.085914 L1278.67545,325.35513 C1278.95159,324.876837 1279.56318,324.712962 1280.04147,324.989104 L1330.77226,354.278536 C1331.25055,354.554678 1331.41442,355.166269 1331.13828,355.644561 L1301.84885,406.375345 C1301.57271,406.853638 1300.96112,407.017513 1300.48282,406.741371 L1249.75204,377.451939 Z" transform="translate(-270 -116)"/>
</svg>
