<svg xmlns="http://www.w3.org/2000/svg" width="1242" height="333" viewBox="0 0 1242 333">
  <path fill="#FFF" fill-rule="evenodd" d="M896,127.618817 L896,100 L958,100 L958,300 L896,300 L896,272.381183 C878.054563,289.493418 853.754253,300 827,300 C771.771525,300 727,255.228475 727,200 C727,144.771525 771.771525,100 827,100 C853.754253,100 878.054563,110.506582 896,127.618817 Z M248,100 L248,0 L186,0 L186,300 L248,300 L248,162 L310,162 L310,300 L372,300 L372,0 L310,0 L310,100 L248,100 Z M503,300 C447.771525,300 403,255.228475 403,200 C403,144.771525 447.771525,100 503,100 C558.228475,100 603,144.771525 603,200 C603,255.228475 558.228475,300 503,300 Z M503,238 C523.98682,238 541,220.98682 541,200 C541,179.01318 523.98682,162 503,162 C482.01318,162 465,179.01318 465,200 C465,220.98682 482.01318,238 503,238 Z M634,0 L696,0 L696,300 L634,300 L634,0 Z M827,238 C847.98682,238 865,220.98682 865,200 C865,179.01318 847.98682,162 827,162 C806.01318,162 789,179.01318 789,200 C789,220.98682 806.01318,238 827,238 Z M31,133 L93,133 L124,333 L0,333 L31,133 Z M20,63 L73.693575,32 L104.693575,85.693575 L51,116.693575 L20,63 Z M1060.84679,188.705081 L1134,2.84217094e-14 L1241.38715,62 L1114.54036,219.705081 L1060.84679,188.705081 Z M1016,266.693575 L1047,213 L1100.69358,244 L1069.69358,297.693575 L1016,266.693575 Z"/>
</svg>
